<?xml version="1.0" encoding="utf-8"?>
<!-- Generator: Adobe Illustrator 16.0.0, SVG Export Plug-In . SVG Version: 6.00 Build 0)  -->
<!DOCTYPE svg PUBLIC "-//W3C//DTD SVG 1.1//EN" "http://www.w3.org/Graphics/SVG/1.1/DTD/svg11.dtd">
<svg version="1.1" id="Layer_1" xmlns="http://www.w3.org/2000/svg" xmlns:xlink="http://www.w3.org/1999/xlink" x="0px" y="0px"
	 width="50px" height="50px" viewBox="0 0 50 50" enable-background="new 0 0 50 50" xml:space="preserve">
<g>
	<path fill="#CE0057" d="M49.801,25c0,13.807-11.193,25-25,25c-13.808,0-25-11.193-25-25s11.192-25,25-25
		C38.607,0,49.801,11.193,49.801,25L49.801,25z M49.801,25"/>
	<path fill="#AA024F" d="M13.814,35.585l14.209,14.209c11.239-1.446,20.141-10.356,21.574-21.599L35.562,14.158L13.814,35.585z
		 M13.814,35.585"/>
	<path fill="#FFFFFF" d="M40.078,25c0,8.438-6.84,15.277-15.277,15.277S9.523,33.438,9.523,25s6.84-15.277,15.278-15.277
		S40.078,16.563,40.078,25L40.078,25z M40.078,25"/>
	<path fill="#CE0058" d="M21.292,15.985l13.464,7.773c0.955,0.552,0.955,1.931,0,2.482l-13.464,7.772
		c-0.955,0.552-2.15-0.138-2.15-1.241V17.227C19.142,16.124,20.337,15.434,21.292,15.985L21.292,15.985z M21.292,15.985"/>
	<path fill="#B50459" d="M19.142,24.832v7.94c0,1.104,1.195,1.794,2.15,1.242l13.464-7.773c0.532-0.308,0.769-0.874,0.705-1.409
		H19.142z M19.142,24.832"/>
</g>
</svg>
